<?xml version="1.0" standalone="no"?>
<!DOCTYPE svg PUBLIC "-//W3C//DTD SVG 20010904//EN"
 "http://www.w3.org/TR/2001/REC-SVG-20010904/DTD/svg10.dtd">
<svg version="1.0" xmlns="http://www.w3.org/2000/svg"
 width="512.000000pt" height="512.000000pt" viewBox="0 0 512.000000 512.000000"
 preserveAspectRatio="xMidYMid meet">
<metadata>
Created by potrace 1.11, written by Peter Selinger 2001-2013
</metadata>
<g transform="translate(0.000000,512.000000) scale(0.100000,-0.100000)"
fill="#000000" stroke="none">
<path d="M1188 4809 c-15 -4 -44 -9 -65 -12 -142 -17 -363 -106 -503 -201 -45
-30 -168 -134 -212 -179 -202 -206 -355 -537 -394 -856 -10 -75 -10 -363 0
-426 48 -329 201 -657 443 -955 268 -331 555 -604 1322 -1259 67 -57 84 -72
146 -126 28 -24 122 -105 210 -180 88 -76 174 -149 190 -164 157 -137 179
-151 236 -151 49 0 89 24 194 115 55 48 125 109 155 135 143 123 661 568 709
609 30 25 64 55 77 66 12 11 55 49 95 85 223 197 271 240 339 304 165 157 356
354 465 481 185 215 355 497 433 720 115 328 118 733 7 1060 -39 116 -136 315
-169 348 -7 7 -19 24 -26 37 -7 14 -45 61 -84 105 -271 306 -616 459 -1020
450 -77 -1 -150 -5 -161 -8 -11 -2 -40 -8 -65 -12 -134 -22 -348 -120 -481
-219 -106 -80 -231 -202 -298 -293 -28 -37 -57 -75 -63 -85 -7 -9 -33 -50 -58
-92 -25 -41 -47 -75 -50 -76 -3 0 -23 31 -44 68 -85 145 -243 333 -361 429
-132 107 -285 191 -430 237 -136 42 -176 48 -360 50 -82 2 -162 -1 -177 -5z"/>
</g>
</svg>
